<svg xmlns="http://www.w3.org/2000/svg" viewBox="0 0 1662.59433 367.1897"><defs><style>.cls-1,.cls-4{fill:#d1d1d1;}.cls-2{fill:#ff500b;}.cls-3{fill:#cecece;}.cls-4{font-size:59.70552px;font-family:AzoSans-Italic, Azo Sans;font-style:italic;letter-spacing:-0.049em;}.cls-5{letter-spacing:-0.06099em;}</style></defs><g id="Layer_2" data-name="Layer 2"><g id="Layer_11" data-name="Layer 11"><path class="cls-1" d="M300.86664,9.48454h54.7991V155.79328h80.33659v46.28661H300.86664Z"/><path class="cls-1" d="M441.84982,9.48454h54.7991V202.07989h-54.7991Z"/><path class="cls-1" d="M666.62862,246.77016c-22.87757-11.43815-43.36032-27.39955-57.99113-41.764-57.19328-.79784-101.35208-44.1588-101.35208-99.22364,0-55.59758,44.95665-99.22427,102.94778-99.22427,57.99176,0,102.94841,43.62669,102.94841,99.22427,0,36.7099-19.95128,68.1-49.2129,85.125v.53147a418.21755,418.21755,0,0,0,51.60708,27.40019Zm-56.39543-90.97688c27.13381,0,48.14867-22.07909,48.14867-50.01075S637.367,55.77115,610.23319,55.77115c-27.13318,0-48.14868,22.07972-48.14868,50.01138S583.1,155.79328,610.23319,155.79328Z"/><path class="cls-1" d="M900.44948,110.83663c0,29.26162-5.58684,49.47863-16.2265,63.57733-14.36508,19.15343-40.70041,30.59221-72.88831,30.59221-31.6558,0-59.32173-10.90667-73.95254-31.39006-10.10819-14.0987-15.16292-34.58208-15.16292-62.77948V9.48454h54.79911V107.6446c0,18.62068,2.12844,29.52736,7.44891,36.97627,5.31983,7.44827,14.6308,12.7681,27.93166,12.7681,11.97025,0,20.74912-4.25561,26.33533-11.17241,6.11831-7.44827,9.0446-19.6849,9.0446-38.572V9.48454h52.67066Z"/><path class="cls-1" d="M1012.433,6.55826c57.99176,0,102.94841,43.62669,102.94841,99.22427,0,55.597-44.95665,99.22364-102.94841,99.22364-57.9905,0-102.94715-43.62669-102.94715-99.22364C909.48582,50.185,954.44247,6.55826,1012.433,6.55826Zm0,149.235c27.13444,0,48.14931-22.07909,48.14931-50.01075s-21.01487-50.01138-48.14931-50.01138c-27.13318,0-48.148,22.07972-48.148,50.01138S985.29979,155.79328,1012.433,155.79328Z"/><path class="cls-1" d="M1126.01469,9.48454h67.30274c23.409,0,40.69977,2.92629,54.00062,9.57672,18.62068,9.0446,31.12432,25.27174,31.12432,50.27712,0,23.67541-11.43942,41.764-35.38121,51.87281l51.075,80.8687h-61.98037l-42.82948-73.15405h-8.51249v73.15405h-54.7991Zm68.36569,81.93292q15.16419,0,21.54761-3.99051c5.05409-2.92565,7.71528-7.98038,7.71528-15.16292,0-8.24612-3.72541-13.30022-9.311-15.96077-4.52262-2.1278-10.90667-3.192-23.409-3.192h-10.10946V91.41746Z"/><path class="cls-1" d="M1290.93838,9.48454h54.7991V202.07989h-54.7991Z"/><path class="cls-1" d="M1520.23917,193.56739c-17.025,7.98039-37.50838,11.43878-55.86333,11.43878-64.64155,0-108.00251-43.09458-108.00251-98.9579,0-56.92754,44.95665-99.49,108.00251-99.49,19.15343,0,37.77412,3.9905,53.20341,10.90667V71.20045c-14.09934-8.77887-33.25277-15.96141-52.13919-15.96141-32.45428,0-54.26762,21.0155-54.26762,50.27712,0,27.93166,20.21765,50.80923,55.33184,50.80923,18.88643,0,37.50838-6.65043,53.73489-16.75925Z"/><path class="cls-1" d="M1531.40522,9.48454h125.559V55.77115h-70.75987v24.4739h59.8532v43.62606h-59.8532v31.92217h73.95253v46.28661H1531.40522Z"/><path class="cls-2" d="M796.65635,357.39647c-12.61793,6.027-29.37875,9.79323-45.76342,9.79323-46.32882,0-77.21454-29.75632-77.21454-69.49277,0-40.49064,32.20391-71.00021,76.46129-71.00021a95.2632,95.2632,0,0,1,41.99715,9.60539V273.7788c-12.053-7.34469-26.74283-12.61746-40.49064-12.61746-24.29429,0-39.17245,16.0071-39.17245,36.53559,0,20.15093,14.50153,36.72344,38.41919,36.72344a35.87965,35.87965,0,0,0,8.28626-.9411V318.97774H740.53477V290.54009h56.12158Z"/><path class="cls-2" d="M807.95514,228.76817h88.89044V261.538H846.7505v17.32576h42.37377v30.88619H846.7505v22.59947h52.35484v32.76839h-91.1502Z"/><path class="cls-2" d="M965.39349,315.776c-7.53253-10.16986-14.124-19.39768-20.90418-29.19091l-.37662.18878c.18878,11.48758.37662,23.164.37662,34.65246v43.6915H907.20047V228.76817h36.34775l36.159,49.3423c7.53253,10.16986,14.124,19.39768,20.90418,29.19091l.37663-.18878c-.18878-11.48758-.37663-23.16394-.37663-34.65152V228.76817h37.28885V365.11778h-36.34775Z"/><path class="cls-3" d="M176.214,235.71231c.065-.02467-.03553-.01429-.07018-.0204C176.05586,235.78766,176.13032,235.74727,176.214,235.71231Z"/><path class="cls-2" d="M86.01156,29.32875c27.31557-10.54905,56.14083-16.41831,84.9-22.21188C157.14613-14.76937,70.25894,18.505,56.66887,43.73877,63.48668,55.0977,76.00255,29.4809,86.01156,29.32875Z"/><path class="cls-3" d="M195.36226,78.36184a40.95572,40.95572,0,0,0-3.76017-1.91067A42.04618,42.04618,0,0,0,195.36226,78.36184Z"/><path class="cls-2" d="M214.79291,144.65173c6.28327,3.94678,28.17743,34.25951,23.31278,15.01085-9.76529-12.64541-67.10188-76.4923-79.43217-58.84495,5.80685,9.90313,14.61971,14.33513,23.86571,20.83924C193.59548,128.92414,203.35526,137.91521,214.79291,144.65173Z"/><path class="cls-3" d="M25.69975,210.72082a.47518.47518,0,0,0-.61843.29594C25.39722,211.3185,25.49577,210.96133,25.69975,210.72082Z"/><path class="cls-3" d="M104.22768,45.2494c5.06548-1.45412,9.83551-5.69453,15.64846-4.16793,33.49507-12.174,69.99281-3.7309,98.96688,11.22738C237.70815,40.55116,196.85464,9.839,179.26748,14.8782a189.45363,189.45363,0,0,0-60.46632,9.34209C113.95146,28.67476,90.81159,38.50831,104.22768,45.2494Z"/><path class="cls-2" d="M81.588,112.69654c-7.38038-2.5084-9.76392,12.57395-1.87527,12.6727C85.08007,124.71014,85.836,115.316,81.588,112.69654Z"/><path class="cls-2" d="M92.725,138.8374c-7.43918.62792-8.4044,15.93791.64469,13.02131C100.65291,150.80664,98.70113,139.81757,92.725,138.8374Z"/><path class="cls-3" d="M71.38762,251.3079c-5.34617.56247-6.92009-3.24549-11.04012-6.47535-3.41219,3.34257-6.40935,8.98281-3.27126,13.39086,3.04535,22.08413,29.41429,12.05432,32.92946-4.57372C88.99327,238.02867,80.40387,253.50369,71.38762,251.3079Z"/><path class="cls-2" d="M45.73586,237.42263c-4.51354-1.57672-13.41432-3.1708-15.40662,2.41058,2.5233,12.026,19.93569,9.62814,24.946,1.48112C63.87143,230.75225,51.25552,227.01407,45.73586,237.42263Z"/><path class="cls-2" d="M58.15545,146.42215c-.8531,5.83267,8.16374,8.5444,9.89846,2.533C69.967,140.66083,58.80949,135.92109,58.15545,146.42215Z"/><path class="cls-3" d="M250.29288,113.38c.03826.05.04062.13976.0955.05414C250.36517,113.33415,250.37225,113.25675,250.29288,113.38Z"/><path class="cls-3" d="M264.44434,155.11782c-.03423.54865-.08006,1.099-.14074,1.65141A9.16587,9.16587,0,0,0,264.44434,155.11782Z"/><path class="cls-3" d="M116.13663,231.64759c2.1472-6.96361-2.31243-14.82433,1.30581-21.355,12.54617-10.80147,27.90056,14.10036,25.03933-18.14614-8.74559-13.80955-1.34181-23.37179,14.09589-23.4787,12.01094-14.786-26.29832-16.57695-9.25328-36.989,5.107-3.28227,12.87368-4.06643,13.66394-11.57018.33921-9.18345-10.54109-9.21271-16.84727-11.37628-10.1522-4.02876-7.10912-18.40333,1.67246-22.20289,4.00555-11.19143-7.03486-9.85705-14.385-11.74775-13.564-4.69416-9.76726-14.79183-6.92786-23.23616C114.06417,34.06284,103.67789,70.68031,90.73074,56.833c-2.39091-.90041-1.94528-4.7391-2.82169-7.06654-2.09941-14.02375-11.09057-3.36631-13.75747,4.6293C72.8859,57.335,72.25921,60.843,69.468,62.7953a1.97172,1.97172,0,0,1-.71236,3.4064c-4.25339.80013-10.22665,3.38077-13.43585-.68817C52.36119,46.72265,41.77712,45.089,40.5319,65.42207c.19414,16.06734-7.378,14.24273-18.26175,12.89118C18.633,83.0379,16.29246,88.988,18.75862,94.71036c3.75091,38.75215-28.97535,5.27684-15.4737,36.66981,14.62168,17.315-6.90386,20.831.52638,37.63689C35.428,182.1582,6.74443,187.86183,17.026,204.222c37.14823-7.88128,7.8204,30.36293,28.13415,25.62845,25.79673-21.3218,17.4536,20.89043,30.99272,14.23225C88.22259,240.42,82.599,225.71613,90.95066,220.19538,102.70972,217.07076,104.24381,243.43459,116.13663,231.64759ZM51.40718,146.20513c-.24853-12.4485,19.75522-11.821,20.17282-.287C74.50044,160.05338,49.59319,160.533,51.40718,146.20513Zm23.89108-37.54684c13.17041-2.68657,17.014,19.15984,5.17131,21.42369C65.8356,133.733,62.26751,112.88773,75.29826,108.65829Zm12.14185,27.94939c12.8544-7.1462,20.67411,13.92865,8.13817,19.17947C81.40941,163.29184,74.2221,142.27832,87.44011,136.60768Z"/><path class="cls-3" d="M228.62109,56.89054a.44832.44832,0,0,1-.14221.11847C228.70607,57.10578,228.77108,57.14247,228.62109,56.89054Z"/><path class="cls-3" d="M140.38944,53.11513c.36361,10.93012,32.34,6.20469,47.84275,18.68108,20.63064,7.24705,35.00949,25.47812,55.2657,30.46222,3.37837-.21711,5.935-1.0559,5.63572-5.16084,2.925-1.54932,1.58837-4.95586,1.061-8.52709-2.16785-13.59475-12.52364-23.70191-26.10457-27.82877C206.38035,52.249,145.3548,20.34142,140.38944,53.11513Z"/><path class="cls-2" d="M29.35606,213.44839c-2.69561-2.0278-17.79341-6.2154-12.92866.60638,5.91326-.42089,6.50731,7.23536,11.36467,8.49475C32.99072,222.62825,32.56388,215.90481,29.35606,213.44839Z"/><path class="cls-3" d="M223.63793,227.96237c.03738-.048-.01259-.12825-.01091-.19178C223.63016,227.83456,223.63488,227.89844,223.63793,227.96237Z"/><path class="cls-3" d="M185.64142,130.76478c-10.94354-12.021-25.3573,6.62007-20.12442,18.47459,7.87812,10.22764,23.53426,15.1004,31.29013,27.13613,10.7552,10.08045,16.05495,24.08,24.69589,35.44847,17.2866,9.3387,19.05633,10.6568,23.71248-11.24213C241.7616,169.0262,208.74805,149.06312,185.64142,130.76478Z"/><path class="cls-3" d="M168.90087,173.244c-2.813,8.34668,6.01476,13.74389,9.093,20.64992,5.326,8.90231,8.34372,18.92282,13.08484,28.14619,4.33571,14.79488,2.52389,29.69912,9.04939,43.0108,6.9912,11.53591,17.97791-6.18442,17.79006-14.17752a86.50651,86.50651,0,0,0-9.10919-48.48119C201.35116,190.51938,182.37518,157.3347,168.90087,173.244Z"/><path class="cls-3" d="M202.36152,274.58974c.0718-.02724-.03924-.01578-.0775-.02252C202.18685,274.673,202.26907,274.62834,202.36152,274.58974Z"/><path class="cls-2" d="M175.30737,199.30977c-5.70211-13.23744-24.87764-31.25611-21.47371-6.10137,7.34084,11.45811,19.02112,21.57058,22.15282,35.75991,4.04942,8.31471,4.39925,18.23849,5.10217,26.94,5.81068,6.6087,10.20088-.26152,9.75634-6.93347C190.14728,231.64838,183.38446,214.79728,175.30737,199.30977Z"/><path class="cls-3" d="M246.57245,157.031c.04406.0507.08763.1018.1313.15284C246.79934,157.18364,246.62841,157.04452,246.57245,157.031Z"/><path class="cls-3" d="M225.01623,99.52062c-12.01675-10.10927-46.15612-26.68823-55.775-23.27225-12.47959,1.81045,1.26509,17.02774,7.43879,19.42082,9.44624,6.199,18.97431,12.84747,26.37268,22.017,8.98989,8.46386,19.65175,15.20254,29.23381,23.44274,8.33714,6.28966,22.3508,23.38944,24.04874,2.48072C258.51405,122.21551,236.703,113.72411,225.01623,99.52062Zm-1.453,5.59029a19.46181,19.46181,0,0,1,2.02387,1.821C225.06147,106.47159,222.27311,104.087,223.56328,105.11091Zm.12294-3.0605a19.48134,19.48134,0,0,1,2.02387,1.821C225.18431,103.4111,222.396,101.02648,223.68622,102.05041Zm27.87047,50.783c.03452.09608.10809.16586-.03157.07779C251.40316,152.86179,251.46719,152.86081,251.55669,152.83342Z"/><path class="cls-3" d="M251.40218,155.9717c.13966.08808.06609.01825.03167-.07779C251.34435,155.9213,251.28023,155.92228,251.40218,155.9717Z"/><path class="cls-3" d="M158.79961,214.43992c-8.6493-7.20108-16.60837,5.04576-10.87253,12.8304,5.252,12.71568,5.84226,26.527,4.42246,40.06386.05616,7.50257-7.47223,17.0716-1.43258,23.38378,21.671,8.37416,25.50945-22.16683,24.99881-36.95522A48.98638,48.98638,0,0,0,158.79961,214.43992Z"/><path class="cls-3" d="M99.5438,277.01818c1.23765,25.9689,31.65512,4.45487,33.9644-10.40841C136.01282,223.02362,102.24128,256.75085,99.5438,277.01818Z"/><path class="cls-3" d="M3.70842,153.75777c-.09333.0718-.18883.13941-.28276.20983A2.667,2.667,0,0,0,3.70842,153.75777Z"/><path class="cls-2" d="M96.40817,239.01065c5.00578,11.50124-3.20743,21.067-4.96635,31.56149,4.27248,5.43263,3.53573-9.01506,7.07814-11.51289C112.95654,246.16723,91.49661,231.47533,96.40817,239.01065Z"/><path class="cls-2" d="M141.72269,227.15914c-2.27722-11.73945-16.43389-6.67943-11.24134,3.00856,12.17332,13.34754,18.48412,31.5521,7.61268,47.93072,2.00253,15.1121,11.38307-12.85558,9.65366-18.31644C147.25692,249.04725,146.64655,237.3703,141.72269,227.15914Z"/><path class="cls-3" d="M246.69529,153.97055q.06609.07605.1314.15284C246.92219,154.12314,246.75135,153.984,246.69529,153.97055Z"/><path class="cls-3" d="M191.725,73.39068a42.06054,42.06054,0,0,0,3.76007,1.91067A40.95148,40.95148,0,0,0,191.725,73.39068Z"/><path class="cls-3" d="M3.5485,150.90711a2.64764,2.64764,0,0,0,.28276-.20983C3.73793,150.76907,3.64253,150.83669,3.5485,150.90711Z"/><path class="cls-3" d="M223.76077,224.90188c.03738-.048-.01259-.12825-.011-.19179C223.7531,224.77407,223.75782,224.838,223.76077,224.90188Z"/><path class="cls-3" d="M228.74383,53.83005a.44742.44742,0,0,1-.142.11846C228.829,54.04529,228.89392,54.082,228.74383,53.83005Z"/><text class="cls-4" transform="translate(1214.45123 280.70369)">be<tspan class="cls-5" x="61.49512" y="0">c</tspan><tspan x="87.64648" y="0">ome liquid rich</tspan></text></g></g></svg>